<svg xmlns="http://www.w3.org/2000/svg" id="cross-15" width="21" height="21" viewBox="0 0 21 21"><g><path d="M0,0 H21 V21 H0 Z" fill="none"/><path d="M5.640000000000001 4.27L10.5 9.129999999999999l4.84-4.84A0.92 0.92 0 0 1 16 4a1 1 0 0 1 1 1 0.9 0.9 0 0 1-0.27 0.66L11.84 10.5l4.89 4.89A0.9 0.9 0 0 1 17 16a1 1 0 0 1-1 1 0.92 0.92 0 0 1-0.69-0.27L10.5 11.87l-4.85 4.85A0.92 0.92 0 0 1 5 17a1 1 0 0 1-1-1 0.9 0.9 0 0 1 0.27-0.66L9.16 10.5 4.27 5.609999999999999A0.9 0.9 0 0 1 4 5a1 1 0 0 1 1-1c0.24 0.003 0.47 0.1 0.64 0.27z" fill="hsl(229, 0%, 100%)" stroke="hsl(0, 0%, 0%)" stroke-linejoin="round" stroke-miterlimit="4px" stroke-width="2"/><path d="M5.640000000000001 4.27L10.5 9.129999999999999l4.84-4.84A0.92 0.92 0 0 1 16 4a1 1 0 0 1 1 1 0.9 0.9 0 0 1-0.27 0.66L11.84 10.5l4.89 4.89A0.9 0.9 0 0 1 17 16a1 1 0 0 1-1 1 0.92 0.92 0 0 1-0.69-0.27L10.5 11.87l-4.85 4.85A0.92 0.92 0 0 1 5 17a1 1 0 0 1-1-1 0.9 0.9 0 0 1 0.27-0.66L9.16 10.5 4.27 5.609999999999999A0.9 0.9 0 0 1 4 5a1 1 0 0 1 1-1c0.24 0.003 0.47 0.1 0.64 0.27z" fill="hsl(229, 0%, 100%)"/></g></svg>