<svg xmlns="http://www.w3.org/2000/svg" id="diamond-15" width="21" height="21" viewBox="0 0 21 21"><g><path d="M0,0 H21 V21 H0 Z" fill="none"/><path d="M10.036999999999999 4.2010000000000005L5.125 9.7a0.482 0.482 0 0 0-0.124 0.3c-0.006 0.11 0.028 0.21 0.096 0.3l4.91 6.46c0.055 0.074 0.13 0.135 0.215 0.177a0.637 0.637 0 0 0 0.556 0 0.595 0.595 0 0 0 0.216-0.177l4.91-6.46a0.453 0.453 0 0 0 0.095-0.3 0.482 0.482 0 0 0-0.124-0.3L10.963000000000001 4.2010000000000005a0.604 0.604 0 0 0-0.208-0.148 0.64 0.64 0 0 0-0.718 0.148z" fill="hsl(229, 0%, 100%)" stroke="hsl(0, 0%, 0%)" stroke-linejoin="round" stroke-miterlimit="4px" stroke-width="2"/><path d="M10.036999999999999 4.2010000000000005L5.125 9.7a0.482 0.482 0 0 0-0.124 0.3c-0.006 0.11 0.028 0.21 0.096 0.3l4.91 6.46c0.055 0.074 0.13 0.135 0.215 0.177a0.637 0.637 0 0 0 0.556 0 0.595 0.595 0 0 0 0.216-0.177l4.91-6.46a0.453 0.453 0 0 0 0.095-0.3 0.482 0.482 0 0 0-0.124-0.3L10.963000000000001 4.2010000000000005a0.604 0.604 0 0 0-0.208-0.148 0.64 0.64 0 0 0-0.718 0.148z" fill="hsl(229, 0%, 100%)"/></g></svg>