<svg width="30" height="42" viewBox="0 0 30 42" fill="none" xmlns="http://www.w3.org/2000/svg">
<path fill-rule="evenodd" clip-rule="evenodd" d="M12.7074 39.0171C9.45243 34.2857 6.1959 29.5554 2.94233 24.8229C0.852874 21.7837 -0.0919017 18.387 0.190278 14.6504C0.706701 7.81199 5.24587 2.33027 11.569 0.843301C19.6491 -1.05677 27.7039 4.64561 29.0271 13.2341C29.7024 17.6163 28.7259 21.576 26.2102 25.1523C23.7568 28.6401 21.368 32.178 18.9513 35.6943C17.6132 37.6413 16.2759 39.589 14.9381 41.5361C14.8634 41.6449 14.7867 41.7523 14.6858 41.896C14.0094 40.9117 13.3589 39.9641 12.7074 39.0171Z" fill="black"/>
<path fill-rule="evenodd" clip-rule="evenodd" d="M14.6883 23.0693C18.3401 23.0693 21.3005 19.6977 21.3005 15.5387C21.3005 11.3796 18.3401 8.008 14.6883 8.008C11.0365 8.008 8.07611 11.3796 8.07611 15.5387C8.07611 19.6977 11.0365 23.0693 14.6883 23.0693Z" fill="white"/>
</svg>
