<svg version="1.1" id="Icons" xmlns="http://www.w3.org/2000/svg" x="0px" y="0px" viewBox="0 0 32 32" style="enable-background:new 0 0 32 32" xml:space="preserve" width="32" height="32"><path d="M22.7,18.7l-9.4-9.4C14.3,8,14.2,6.2,13,5c-1.3-1.3-3.4-1.3-4.7,0c-0.7,0.7-1,1.5-1,2.4c-0.9,0-1.7,0.3-2.4,1 C3.7,9.6,3.7,11.7,5,13c1.2,1.2,3,1.3,4.3,0.3l9.4,9.4c-1,1.3-0.9,3.1,0.3,4.3c1.3,1.3,3.4,1.3,4.7,0c0.7-0.7,1-1.5,1-2.4 c0.9,0,1.7-0.3,2.4-1c1.3-1.3,1.3-3.4,0-4.7C25.8,17.8,24,17.7,22.7,18.7z" style="fill:none;stroke:#ffffff;stroke-width:2;stroke-linecap:round;stroke-linejoin:round;stroke-miterlimit:10"/></svg>